<?xml version="1.0" encoding="UTF-8"?>
<svg xmlns="http://www.w3.org/2000/svg" viewBox="0 0 1024 1024">
  <defs>
    <linearGradient id="g" x1="0" y1="0" x2="1" y2="1">
      <stop offset="0%" stop-color="#1f6feb"/>
      <stop offset="60%" stop-color="#43d0b6"/>
      <stop offset="100%" stop-color="#9bdb4d"/>
    </linearGradient>
    <filter id="s" x="-20%" y="-20%" width="140%" height="140%">
      <feDropShadow dx="0" dy="8" stdDeviation="18" flood-color="#000" flood-opacity="0.35"/>
    </filter>
  </defs>

  <!-- Background -->
  <rect x="64" y="64" width="896" height="896" rx="200" ry="200" fill="#111418"/>
  <!-- Subtle inner panel -->
  <rect x="140" y="180" width="744" height="664" rx="48" ry="48" fill="#0c0f12"/>
  <rect x="140" y="180" width="744" height="84" rx="48" ry="48" fill="#0f1317"/>
  <!-- Window dots -->
  <circle cx="196" cy="222" r="12" fill="#ff5f57"/>
  <circle cx="236" cy="222" r="12" fill="#febc2e"/>
  <circle cx="276" cy="222" r="12" fill="#28c840"/>

  <!-- Prompt chevron ">" -->
  <path d="M 240 420 L 420 512 L 240 604" fill="none" stroke="url(#g)" stroke-width="42" stroke-linecap="round" stroke-linejoin="round" filter="url(#s)"/>
  <!-- Cursor/underscore -->
  <rect x="460" y="690" width="280" height="24" rx="12" fill="url(#g)"/>
  <!-- Glow underline -->
  <rect x="460" y="690" width="280" height="24" rx="12" fill="url(#g)" opacity="0.35" filter="url(#s)"/>

  <!-- Brand monogram JA -->
  <g transform="translate(720, 190)">
    <path d="M0 0 L64 0 L64 120 C64 162 34 192 -8 192 L-16 192 L-16 156 L-8 156 C8 156 16 144 16 128 L16 0 Z" fill="#dfe7f1" opacity="0.9"/>
    <path d="M84 192 L176 0 L220 0 L128 192 Z" fill="#dfe7f1" opacity="0.9"/>
  </g>

  <!-- Soft border -->
  <rect x="64" y="64" width="896" height="896" rx="200" ry="200" fill="none" stroke="#2a2f35" stroke-width="4"/>
</svg>

